  0
SECTION
  2
HEADER
  9
$ACADVER
  1
AC1009
  9
$FILLMODE
 70
 0
  9
$SPLFRAME
 70
 1
  9
$EXTMIN
 10
0
 20
0
 30
0.0
  9
$EXTMAX
 10
1058.33
 20
1058.33
 30
0.0
  0
ENDSEC
  0
SECTION
  2
TABLES
  0
TABLE
  2
LAYER
 70
1
  0
LAYER
  2
0
 70
     0
 62
     7
  6
CONTINUOUS
  0
ENDTAB
  0
ENDSEC
  0
SECTION
  2
ENTITIES
  0
LINE
  8
0
 62
     0
 10
0.0950846
 20
95.5075
 30
0.0
 11
404.908
 21
95.5075
 31
0.0
  0
LINE
  8
0
 62
     0
 10
404.908
 20
95.5075
 30
0.0
 11
404.908
 21
0.257693
 31
0.0
  0
LINE
  8
0
 62
     0
 10
404.908
 20
0.257693
 30
0.0
 11
0.0950846
 21
0.257693
 31
0.0
  0
LINE
  8
0
 62
     0
 10
0.0950846
 20
0.257693
 30
0.0
 11
0.0950846
 21
95.5075
 31
0.0
  0
LINE
  8
0
 62
     0
 10
169.307
 20
16.7831
 30
0.0
 11
169.307
 21
12.0826
 31
0.0
  0
LINE
  8
0
 62
     0
 10
169.307
 20
12.0826
 30
0.0
 11
113.006
 21
12.0826
 31
0.0
  0
LINE
  8
0
 62
     0
 10
113.006
 20
12.0826
 30
0.0
 11
113.006
 21
15.3128
 31
0.0
  0
LINE
  8
0
 62
     0
 10
113.006
 20
15.3128
 30
0.0
 11
106.256
 21
15.3128
 31
0.0
  0
LINE
  8
0
 62
     0
 10
106.256
 20
15.3128
 30
0.0
 11
106.256
 21
12.0826
 31
0.0
  0
LINE
  8
0
 62
     0
 10
106.256
 20
12.0826
 30
0.0
 11
105.431
 21
12.0826
 31
0.0
  0
LINE
  8
0
 62
     0
 10
105.431
 20
12.0826
 30
0.0
 11
105.431
 21
9.28384
 31
0.0
  0
LINE
  8
0
 62
     0
 10
105.431
 20
9.28384
 30
0.0
 11
106.256
 21
9.28384
 31
0.0
  0
LINE
  8
0
 62
     0
 10
106.256
 20
9.28384
 30
0.0
 11
106.256
 21
3.01377
 31
0.0
  0
LINE
  8
0
 62
     0
 10
106.256
 20
3.01377
 30
0.0
 11
107.982
 21
3.01377
 31
0.0
  0
LINE
  8
0
 62
     0
 10
107.982
 20
3.01377
 30
0.0
 11
107.982
 21
1.8135
 31
0.0
  0
LINE
  8
0
 62
     0
 10
107.982
 20
1.8135
 30
0.0
 11
111.282
 21
1.8135
 31
0.0
  0
LINE
  8
0
 62
     0
 10
111.282
 20
1.8135
 30
0.0
 11
111.282
 21
3.01377
 31
0.0
  0
LINE
  8
0
 62
     0
 10
111.282
 20
3.01377
 30
0.0
 11
113.006
 21
3.01377
 31
0.0
  0
LINE
  8
0
 62
     0
 10
113.006
 20
3.01377
 30
0.0
 11
113.006
 21
7.48411
 31
0.0
  0
LINE
  8
0
 62
     0
 10
113.006
 20
7.48411
 30
0.0
 11
169.307
 21
7.48411
 31
0.0
  0
LINE
  8
0
 62
     0
 10
169.307
 20
7.48411
 30
0.0
 11
169.307
 21
2.78364
 31
0.0
  0
LINE
  8
0
 62
     0
 10
169.307
 20
2.78364
 30
0.0
 11
183.307
 21
2.78364
 31
0.0
  0
LINE
  8
0
 62
     0
 10
183.307
 20
2.78364
 30
0.0
 11
183.307
 21
7.48411
 31
0.0
  0
LINE
  8
0
 62
     0
 10
183.307
 20
7.48411
 30
0.0
 11
239.606
 21
7.48411
 31
0.0
  0
LINE
  8
0
 62
     0
 10
239.606
 20
7.48411
 30
0.0
 11
239.606
 21
3.01377
 31
0.0
  0
LINE
  8
0
 62
     0
 10
239.606
 20
3.01377
 30
0.0
 11
241.332
 21
3.01377
 31
0.0
  0
LINE
  8
0
 62
     0
 10
241.332
 20
3.01377
 30
0.0
 11
241.332
 21
1.8135
 31
0.0
  0
LINE
  8
0
 62
     0
 10
241.332
 20
1.8135
 30
0.0
 11
244.632
 21
1.8135
 31
0.0
  0
LINE
  8
0
 62
     0
 10
244.632
 20
1.8135
 30
0.0
 11
244.632
 21
3.01377
 31
0.0
  0
LINE
  8
0
 62
     0
 10
244.632
 20
3.01377
 30
0.0
 11
246.356
 21
3.01377
 31
0.0
  0
LINE
  8
0
 62
     0
 10
246.356
 20
3.01377
 30
0.0
 11
246.356
 21
9.28384
 31
0.0
  0
LINE
  8
0
 62
     0
 10
246.356
 20
9.28384
 30
0.0
 11
247.182
 21
9.28384
 31
0.0
  0
LINE
  8
0
 62
     0
 10
247.182
 20
9.28384
 30
0.0
 11
247.182
 21
12.0826
 31
0.0
  0
LINE
  8
0
 62
     0
 10
247.182
 20
12.0826
 30
0.0
 11
246.356
 21
12.0826
 31
0.0
  0
LINE
  8
0
 62
     0
 10
246.356
 20
12.0826
 30
0.0
 11
246.356
 21
15.3128
 31
0.0
  0
LINE
  8
0
 62
     0
 10
246.356
 20
15.3128
 30
0.0
 11
239.606
 21
15.3128
 31
0.0
  0
LINE
  8
0
 62
     0
 10
239.606
 20
15.3128
 30
0.0
 11
239.606
 21
12.0826
 31
0.0
  0
LINE
  8
0
 62
     0
 10
239.606
 20
12.0826
 30
0.0
 11
183.307
 21
12.0826
 31
0.0
  0
LINE
  8
0
 62
     0
 10
183.307
 20
12.0826
 30
0.0
 11
183.307
 21
16.7831
 31
0.0
  0
LINE
  8
0
 62
     0
 10
183.307
 20
16.7831
 30
0.0
 11
169.307
 21
16.7831
 31
0.0
  0
LINE
  8
0
 62
     0
 10
2.61965
 20
16.7831
 30
0.0
 11
16.6192
 21
16.7831
 31
0.0
  0
LINE
  8
0
 62
     0
 10
16.6192
 20
16.7831
 30
0.0
 11
16.6192
 21
2.78364
 31
0.0
  0
LINE
  8
0
 62
     0
 10
16.6192
 20
2.78364
 30
0.0
 11
2.61965
 21
2.78364
 31
0.0
  0
LINE
  8
0
 62
     0
 10
2.61965
 20
2.78364
 30
0.0
 11
2.61965
 21
16.7831
 31
0.0
  0
LINE
  8
0
 62
     0
 10
21.6697
 20
16.7831
 30
0.0
 11
35.669
 21
16.7831
 31
0.0
  0
LINE
  8
0
 62
     0
 10
35.669
 20
16.7831
 30
0.0
 11
35.669
 21
2.78364
 31
0.0
  0
LINE
  8
0
 62
     0
 10
35.669
 20
2.78364
 30
0.0
 11
21.6697
 21
2.78364
 31
0.0
  0
LINE
  8
0
 62
     0
 10
21.6697
 20
2.78364
 30
0.0
 11
21.6697
 21
16.7831
 31
0.0
  0
LINE
  8
0
 62
     0
 10
59.7697
 20
16.7831
 30
0.0
 11
73.769
 21
16.7831
 31
0.0
  0
LINE
  8
0
 62
     0
 10
73.769
 20
16.7831
 30
0.0
 11
73.769
 21
2.78364
 31
0.0
  0
LINE
  8
0
 62
     0
 10
73.769
 20
2.78364
 30
0.0
 11
59.7697
 21
2.78364
 31
0.0
  0
LINE
  8
0
 62
     0
 10
59.7697
 20
2.78364
 30
0.0
 11
59.7697
 21
16.7831
 31
0.0
  0
LINE
  8
0
 62
     0
 10
283.607
 20
16.7831
 30
0.0
 11
297.607
 21
16.7831
 31
0.0
  0
LINE
  8
0
 62
     0
 10
297.607
 20
16.7831
 30
0.0
 11
297.607
 21
2.78364
 31
0.0
  0
LINE
  8
0
 62
     0
 10
297.607
 20
2.78364
 30
0.0
 11
283.607
 21
2.78364
 31
0.0
  0
LINE
  8
0
 62
     0
 10
283.607
 20
2.78364
 30
0.0
 11
283.607
 21
16.7831
 31
0.0
  0
LINE
  8
0
 62
     0
 10
321.707
 20
16.7831
 30
0.0
 11
335.707
 21
16.7831
 31
0.0
  0
LINE
  8
0
 62
     0
 10
335.707
 20
16.7831
 30
0.0
 11
335.707
 21
2.78364
 31
0.0
  0
LINE
  8
0
 62
     0
 10
335.707
 20
2.78364
 30
0.0
 11
321.707
 21
2.78364
 31
0.0
  0
LINE
  8
0
 62
     0
 10
321.707
 20
2.78364
 30
0.0
 11
321.707
 21
16.7831
 31
0.0
  0
LINE
  8
0
 62
     0
 10
359.809
 20
16.7831
 30
0.0
 11
373.807
 21
16.7831
 31
0.0
  0
LINE
  8
0
 62
     0
 10
373.807
 20
16.7831
 30
0.0
 11
373.807
 21
2.78364
 31
0.0
  0
LINE
  8
0
 62
     0
 10
373.807
 20
2.78364
 30
0.0
 11
359.809
 21
2.78364
 31
0.0
  0
LINE
  8
0
 62
     0
 10
359.809
 20
2.78364
 30
0.0
 11
359.809
 21
16.7831
 31
0.0
  0
LINE
  8
0
 62
     0
 10
2.61965
 20
35.833
 30
0.0
 11
16.6192
 21
35.833
 31
0.0
  0
LINE
  8
0
 62
     0
 10
16.6192
 20
35.833
 30
0.0
 11
16.6192
 21
21.8336
 31
0.0
  0
LINE
  8
0
 62
     0
 10
16.6192
 20
21.8336
 30
0.0
 11
2.61965
 21
21.8336
 31
0.0
  0
LINE
  8
0
 62
     0
 10
2.61965
 20
21.8336
 30
0.0
 11
2.61965
 21
35.833
 31
0.0
  0
LINE
  8
0
 62
     0
 10
21.6697
 20
35.833
 30
0.0
 11
35.669
 21
35.833
 31
0.0
  0
LINE
  8
0
 62
     0
 10
35.669
 20
35.833
 30
0.0
 11
35.669
 21
21.8336
 31
0.0
  0
LINE
  8
0
 62
     0
 10
35.669
 20
21.8336
 30
0.0
 11
21.6697
 21
21.8336
 31
0.0
  0
LINE
  8
0
 62
     0
 10
21.6697
 20
21.8336
 30
0.0
 11
21.6697
 21
35.833
 31
0.0
  0
LINE
  8
0
 62
     0
 10
55.0072
 20
35.833
 30
0.0
 11
69.0065
 21
35.833
 31
0.0
  0
LINE
  8
0
 62
     0
 10
69.0065
 20
35.833
 30
0.0
 11
69.0065
 21
21.8336
 31
0.0
  0
LINE
  8
0
 62
     0
 10
69.0065
 20
21.8336
 30
0.0
 11
55.0072
 21
21.8336
 31
0.0
  0
LINE
  8
0
 62
     0
 10
55.0072
 20
21.8336
 30
0.0
 11
55.0072
 21
35.833
 31
0.0
  0
LINE
  8
0
 62
     0
 10
74.0572
 20
35.833
 30
0.0
 11
88.0565
 21
35.833
 31
0.0
  0
LINE
  8
0
 62
     0
 10
88.0565
 20
35.833
 30
0.0
 11
88.0565
 21
21.8336
 31
0.0
  0
LINE
  8
0
 62
     0
 10
88.0565
 20
21.8336
 30
0.0
 11
74.0572
 21
21.8336
 31
0.0
  0
LINE
  8
0
 62
     0
 10
74.0572
 20
21.8336
 30
0.0
 11
74.0572
 21
35.833
 31
0.0
  0
LINE
  8
0
 62
     0
 10
93.1072
 20
35.833
 30
0.0
 11
107.107
 21
35.833
 31
0.0
  0
LINE
  8
0
 62
     0
 10
107.107
 20
35.833
 30
0.0
 11
107.107
 21
21.8336
 31
0.0
  0
LINE
  8
0
 62
     0
 10
107.107
 20
21.8336
 30
0.0
 11
93.1072
 21
21.8336
 31
0.0
  0
LINE
  8
0
 62
     0
 10
93.1072
 20
21.8336
 30
0.0
 11
93.1072
 21
35.833
 31
0.0
  0
LINE
  8
0
 62
     0
 10
112.157
 20
35.833
 30
0.0
 11
126.157
 21
35.833
 31
0.0
  0
LINE
  8
0
 62
     0
 10
126.157
 20
35.833
 30
0.0
 11
126.157
 21
21.8336
 31
0.0
  0
LINE
  8
0
 62
     0
 10
126.157
 20
21.8336
 30
0.0
 11
112.157
 21
21.8336
 31
0.0
  0
LINE
  8
0
 62
     0
 10
112.157
 20
21.8336
 30
0.0
 11
112.157
 21
35.833
 31
0.0
  0
LINE
  8
0
 62
     0
 10
131.207
 20
35.833
 30
0.0
 11
145.207
 21
35.833
 31
0.0
  0
LINE
  8
0
 62
     0
 10
145.207
 20
35.833
 30
0.0
 11
145.207
 21
21.8336
 31
0.0
  0
LINE
  8
0
 62
     0
 10
145.207
 20
21.8336
 30
0.0
 11
131.207
 21
21.8336
 31
0.0
  0
LINE
  8
0
 62
     0
 10
131.207
 20
21.8336
 30
0.0
 11
131.207
 21
35.833
 31
0.0
  0
LINE
  8
0
 62
     0
 10
150.257
 20
35.833
 30
0.0
 11
164.257
 21
35.833
 31
0.0
  0
LINE
  8
0
 62
     0
 10
164.257
 20
35.833
 30
0.0
 11
164.257
 21
21.8336
 31
0.0
  0
LINE
  8
0
 62
     0
 10
164.257
 20
21.8336
 30
0.0
 11
150.257
 21
21.8336
 31
0.0
  0
LINE
  8
0
 62
     0
 10
150.257
 20
21.8336
 30
0.0
 11
150.257
 21
35.833
 31
0.0
  0
LINE
  8
0
 62
     0
 10
169.307
 20
35.833
 30
0.0
 11
183.307
 21
35.833
 31
0.0
  0
LINE
  8
0
 62
     0
 10
183.307
 20
35.833
 30
0.0
 11
183.307
 21
21.8336
 31
0.0
  0
LINE
  8
0
 62
     0
 10
183.307
 20
21.8336
 30
0.0
 11
169.307
 21
21.8336
 31
0.0
  0
LINE
  8
0
 62
     0
 10
169.307
 20
21.8336
 30
0.0
 11
169.307
 21
35.833
 31
0.0
  0
LINE
  8
0
 62
     0
 10
188.357
 20
35.833
 30
0.0
 11
202.357
 21
35.833
 31
0.0
  0
LINE
  8
0
 62
     0
 10
202.357
 20
35.833
 30
0.0
 11
202.357
 21
21.8336
 31
0.0
  0
LINE
  8
0
 62
     0
 10
202.357
 20
21.8336
 30
0.0
 11
188.357
 21
21.8336
 31
0.0
  0
LINE
  8
0
 62
     0
 10
188.357
 20
21.8336
 30
0.0
 11
188.357
 21
35.833
 31
0.0
  0
LINE
  8
0
 62
     0
 10
207.407
 20
35.833
 30
0.0
 11
221.407
 21
35.833
 31
0.0
  0
LINE
  8
0
 62
     0
 10
221.407
 20
35.833
 30
0.0
 11
221.407
 21
21.8336
 31
0.0
  0
LINE
  8
0
 62
     0
 10
221.407
 20
21.8336
 30
0.0
 11
207.407
 21
21.8336
 31
0.0
  0
LINE
  8
0
 62
     0
 10
207.407
 20
21.8336
 30
0.0
 11
207.407
 21
35.833
 31
0.0
  0
LINE
  8
0
 62
     0
 10
226.457
 20
35.833
 30
0.0
 11
240.457
 21
35.833
 31
0.0
  0
LINE
  8
0
 62
     0
 10
240.457
 20
35.833
 30
0.0
 11
240.457
 21
21.8336
 31
0.0
  0
LINE
  8
0
 62
     0
 10
240.457
 20
21.8336
 30
0.0
 11
226.457
 21
21.8336
 31
0.0
  0
LINE
  8
0
 62
     0
 10
226.457
 20
21.8336
 30
0.0
 11
226.457
 21
35.833
 31
0.0
  0
LINE
  8
0
 62
     0
 10
245.507
 20
35.833
 30
0.0
 11
259.507
 21
35.833
 31
0.0
  0
LINE
  8
0
 62
     0
 10
259.507
 20
35.833
 30
0.0
 11
259.507
 21
21.8336
 31
0.0
  0
LINE
  8
0
 62
     0
 10
259.507
 20
21.8336
 30
0.0
 11
245.507
 21
21.8336
 31
0.0
  0
LINE
  8
0
 62
     0
 10
245.507
 20
21.8336
 30
0.0
 11
245.507
 21
35.833
 31
0.0
  0
LINE
  8
0
 62
     0
 10
264.557
 20
35.833
 30
0.0
 11
278.557
 21
35.833
 31
0.0
  0
LINE
  8
0
 62
     0
 10
278.557
 20
35.833
 30
0.0
 11
278.557
 21
21.8336
 31
0.0
  0
LINE
  8
0
 62
     0
 10
278.557
 20
21.8336
 30
0.0
 11
264.557
 21
21.8336
 31
0.0
  0
LINE
  8
0
 62
     0
 10
264.557
 20
21.8336
 30
0.0
 11
264.557
 21
35.833
 31
0.0
  0
LINE
  8
0
 62
     0
 10
288.37
 20
35.833
 30
0.0
 11
302.369
 21
35.833
 31
0.0
  0
LINE
  8
0
 62
     0
 10
302.369
 20
35.833
 30
0.0
 11
302.369
 21
21.8336
 31
0.0
  0
LINE
  8
0
 62
     0
 10
302.369
 20
21.8336
 30
0.0
 11
288.37
 21
21.8336
 31
0.0
  0
LINE
  8
0
 62
     0
 10
288.37
 20
21.8336
 30
0.0
 11
288.37
 21
35.833
 31
0.0
  0
LINE
  8
0
 62
     0
 10
312.182
 20
35.833
 30
0.0
 11
326.182
 21
35.833
 31
0.0
  0
LINE
  8
0
 62
     0
 10
326.182
 20
35.833
 30
0.0
 11
326.182
 21
21.8336
 31
0.0
  0
LINE
  8
0
 62
     0
 10
326.182
 20
21.8336
 30
0.0
 11
312.182
 21
21.8336
 31
0.0
  0
LINE
  8
0
 62
     0
 10
312.182
 20
21.8336
 30
0.0
 11
312.182
 21
35.833
 31
0.0
  0
LINE
  8
0
 62
     0
 10
331.232
 20
35.833
 30
0.0
 11
345.232
 21
35.833
 31
0.0
  0
LINE
  8
0
 62
     0
 10
345.232
 20
35.833
 30
0.0
 11
345.232
 21
21.8336
 31
0.0
  0
LINE
  8
0
 62
     0
 10
345.232
 20
21.8336
 30
0.0
 11
331.232
 21
21.8336
 31
0.0
  0
LINE
  8
0
 62
     0
 10
331.232
 20
21.8336
 30
0.0
 11
331.232
 21
35.833
 31
0.0
  0
LINE
  8
0
 62
     0
 10
350.282
 20
35.833
 30
0.0
 11
364.282
 21
35.833
 31
0.0
  0
LINE
  8
0
 62
     0
 10
364.282
 20
35.833
 30
0.0
 11
364.282
 21
21.8336
 31
0.0
  0
LINE
  8
0
 62
     0
 10
364.282
 20
21.8336
 30
0.0
 11
350.282
 21
21.8336
 31
0.0
  0
LINE
  8
0
 62
     0
 10
350.282
 20
21.8336
 30
0.0
 11
350.282
 21
35.833
 31
0.0
  0
LINE
  8
0
 62
     0
 10
369.334
 20
35.833
 30
0.0
 11
383.332
 21
35.833
 31
0.0
  0
LINE
  8
0
 62
     0
 10
383.332
 20
35.833
 30
0.0
 11
383.332
 21
21.8336
 31
0.0
  0
LINE
  8
0
 62
     0
 10
383.332
 20
21.8336
 30
0.0
 11
369.334
 21
21.8336
 31
0.0
  0
LINE
  8
0
 62
     0
 10
369.334
 20
21.8336
 30
0.0
 11
369.334
 21
35.833
 31
0.0
  0
LINE
  8
0
 62
     0
 10
388.384
 20
35.833
 30
0.0
 11
402.382
 21
35.833
 31
0.0
  0
LINE
  8
0
 62
     0
 10
402.382
 20
35.833
 30
0.0
 11
402.382
 21
21.8336
 31
0.0
  0
LINE
  8
0
 62
     0
 10
402.382
 20
21.8336
 30
0.0
 11
388.384
 21
21.8336
 31
0.0
  0
LINE
  8
0
 62
     0
 10
388.384
 20
21.8336
 30
0.0
 11
388.384
 21
35.833
 31
0.0
  0
LINE
  8
0
 62
     0
 10
2.61965
 20
54.8831
 30
0.0
 11
16.6192
 21
54.8831
 31
0.0
  0
LINE
  8
0
 62
     0
 10
16.6192
 20
54.8831
 30
0.0
 11
16.6192
 21
40.8838
 31
0.0
  0
LINE
  8
0
 62
     0
 10
16.6192
 20
40.8838
 30
0.0
 11
2.61965
 21
40.8838
 31
0.0
  0
LINE
  8
0
 62
     0
 10
2.61965
 20
40.8838
 30
0.0
 11
2.61965
 21
54.8831
 31
0.0
  0
LINE
  8
0
 62
     0
 10
21.6697
 20
54.8831
 30
0.0
 11
35.669
 21
54.8831
 31
0.0
  0
LINE
  8
0
 62
     0
 10
35.669
 20
54.8831
 30
0.0
 11
35.669
 21
40.8838
 31
0.0
  0
LINE
  8
0
 62
     0
 10
35.669
 20
40.8838
 30
0.0
 11
21.6697
 21
40.8838
 31
0.0
  0
LINE
  8
0
 62
     0
 10
21.6697
 20
40.8838
 30
0.0
 11
21.6697
 21
54.8831
 31
0.0
  0
LINE
  8
0
 62
     0
 10
59.7697
 20
54.8831
 30
0.0
 11
73.769
 21
54.8831
 31
0.0
  0
LINE
  8
0
 62
     0
 10
73.769
 20
54.8831
 30
0.0
 11
73.769
 21
40.8838
 31
0.0
  0
LINE
  8
0
 62
     0
 10
73.769
 20
40.8838
 30
0.0
 11
59.7697
 21
40.8838
 31
0.0
  0
LINE
  8
0
 62
     0
 10
59.7697
 20
40.8838
 30
0.0
 11
59.7697
 21
54.8831
 31
0.0
  0
LINE
  8
0
 62
     0
 10
83.5822
 20
54.8831
 30
0.0
 11
97.5815
 21
54.8831
 31
0.0
  0
LINE
  8
0
 62
     0
 10
97.5815
 20
54.8831
 30
0.0
 11
97.5815
 21
40.8838
 31
0.0
  0
LINE
  8
0
 62
     0
 10
97.5815
 20
40.8838
 30
0.0
 11
83.5822
 21
40.8838
 31
0.0
  0
LINE
  8
0
 62
     0
 10
83.5822
 20
40.8838
 30
0.0
 11
83.5822
 21
54.8831
 31
0.0
  0
LINE
  8
0
 62
     0
 10
102.632
 20
54.8831
 30
0.0
 11
116.632
 21
54.8831
 31
0.0
  0
LINE
  8
0
 62
     0
 10
116.632
 20
54.8831
 30
0.0
 11
116.632
 21
40.8838
 31
0.0
  0
LINE
  8
0
 62
     0
 10
116.632
 20
40.8838
 30
0.0
 11
102.632
 21
40.8838
 31
0.0
  0
LINE
  8
0
 62
     0
 10
102.632
 20
40.8838
 30
0.0
 11
102.632
 21
54.8831
 31
0.0
  0
LINE
  8
0
 62
     0
 10
121.682
 20
54.8831
 30
0.0
 11
135.682
 21
54.8831
 31
0.0
  0
LINE
  8
0
 62
     0
 10
135.682
 20
54.8831
 30
0.0
 11
135.682
 21
40.8838
 31
0.0
  0
LINE
  8
0
 62
     0
 10
135.682
 20
40.8838
 30
0.0
 11
121.682
 21
40.8838
 31
0.0
  0
LINE
  8
0
 62
     0
 10
121.682
 20
40.8838
 30
0.0
 11
121.682
 21
54.8831
 31
0.0
  0
LINE
  8
0
 62
     0
 10
140.732
 20
54.8831
 30
0.0
 11
154.732
 21
54.8831
 31
0.0
  0
LINE
  8
0
 62
     0
 10
154.732
 20
54.8831
 30
0.0
 11
154.732
 21
40.8838
 31
0.0
  0
LINE
  8
0
 62
     0
 10
154.732
 20
40.8838
 30
0.0
 11
140.732
 21
40.8838
 31
0.0
  0
LINE
  8
0
 62
     0
 10
140.732
 20
40.8838
 30
0.0
 11
140.732
 21
54.8831
 31
0.0
  0
LINE
  8
0
 62
     0
 10
159.782
 20
54.8831
 30
0.0
 11
173.782
 21
54.8831
 31
0.0
  0
LINE
  8
0
 62
     0
 10
173.782
 20
54.8831
 30
0.0
 11
173.782
 21
40.8838
 31
0.0
  0
LINE
  8
0
 62
     0
 10
173.782
 20
40.8838
 30
0.0
 11
159.782
 21
40.8838
 31
0.0
  0
LINE
  8
0
 62
     0
 10
159.782
 20
40.8838
 30
0.0
 11
159.782
 21
54.8831
 31
0.0
  0
LINE
  8
0
 62
     0
 10
178.832
 20
54.8831
 30
0.0
 11
192.832
 21
54.8831
 31
0.0
  0
LINE
  8
0
 62
     0
 10
192.832
 20
54.8831
 30
0.0
 11
192.832
 21
40.8838
 31
0.0
  0
LINE
  8
0
 62
     0
 10
192.832
 20
40.8838
 30
0.0
 11
178.832
 21
40.8838
 31
0.0
  0
LINE
  8
0
 62
     0
 10
178.832
 20
40.8838
 30
0.0
 11
178.832
 21
54.8831
 31
0.0
  0
LINE
  8
0
 62
     0
 10
197.882
 20
54.8831
 30
0.0
 11
211.882
 21
54.8831
 31
0.0
  0
LINE
  8
0
 62
     0
 10
211.882
 20
54.8831
 30
0.0
 11
211.882
 21
40.8838
 31
0.0
  0
LINE
  8
0
 62
     0
 10
211.882
 20
40.8838
 30
0.0
 11
197.882
 21
40.8838
 31
0.0
  0
LINE
  8
0
 62
     0
 10
197.882
 20
40.8838
 30
0.0
 11
197.882
 21
54.8831
 31
0.0
  0
LINE
  8
0
 62
     0
 10
216.932
 20
54.8831
 30
0.0
 11
230.932
 21
54.8831
 31
0.0
  0
LINE
  8
0
 62
     0
 10
230.932
 20
54.8831
 30
0.0
 11
230.932
 21
40.8838
 31
0.0
  0
LINE
  8
0
 62
     0
 10
230.932
 20
40.8838
 30
0.0
 11
216.932
 21
40.8838
 31
0.0
  0
LINE
  8
0
 62
     0
 10
216.932
 20
40.8838
 30
0.0
 11
216.932
 21
54.8831
 31
0.0
  0
LINE
  8
0
 62
     0
 10
235.982
 20
54.8831
 30
0.0
 11
249.982
 21
54.8831
 31
0.0
  0
LINE
  8
0
 62
     0
 10
249.982
 20
54.8831
 30
0.0
 11
249.982
 21
40.8838
 31
0.0
  0
LINE
  8
0
 62
     0
 10
249.982
 20
40.8838
 30
0.0
 11
235.982
 21
40.8838
 31
0.0
  0
LINE
  8
0
 62
     0
 10
235.982
 20
40.8838
 30
0.0
 11
235.982
 21
54.8831
 31
0.0
  0
LINE
  8
0
 62
     0
 10
255.032
 20
54.8831
 30
0.0
 11
269.032
 21
54.8831
 31
0.0
  0
LINE
  8
0
 62
     0
 10
269.032
 20
54.8831
 30
0.0
 11
269.032
 21
40.8838
 31
0.0
  0
LINE
  8
0
 62
     0
 10
269.032
 20
40.8838
 30
0.0
 11
255.032
 21
40.8838
 31
0.0
  0
LINE
  8
0
 62
     0
 10
255.032
 20
40.8838
 30
0.0
 11
255.032
 21
54.8831
 31
0.0
  0
LINE
  8
0
 62
     0
 10
274.082
 20
54.8831
 30
0.0
 11
288.082
 21
54.8831
 31
0.0
  0
LINE
  8
0
 62
     0
 10
288.082
 20
54.8831
 30
0.0
 11
288.082
 21
40.8838
 31
0.0
  0
LINE
  8
0
 62
     0
 10
288.082
 20
40.8838
 30
0.0
 11
274.082
 21
40.8838
 31
0.0
  0
LINE
  8
0
 62
     0
 10
274.082
 20
40.8838
 30
0.0
 11
274.082
 21
54.8831
 31
0.0
  0
LINE
  8
0
 62
     0
 10
293.132
 20
54.8831
 30
0.0
 11
307.132
 21
54.8831
 31
0.0
  0
LINE
  8
0
 62
     0
 10
307.132
 20
54.8831
 30
0.0
 11
307.132
 21
40.8838
 31
0.0
  0
LINE
  8
0
 62
     0
 10
307.132
 20
40.8838
 30
0.0
 11
293.132
 21
40.8838
 31
0.0
  0
LINE
  8
0
 62
     0
 10
293.132
 20
40.8838
 30
0.0
 11
293.132
 21
54.8831
 31
0.0
  0
LINE
  8
0
 62
     0
 10
331.232
 20
54.8831
 30
0.0
 11
345.232
 21
54.8831
 31
0.0
  0
LINE
  8
0
 62
     0
 10
345.232
 20
54.8831
 30
0.0
 11
345.232
 21
40.8838
 31
0.0
  0
LINE
  8
0
 62
     0
 10
345.232
 20
40.8838
 30
0.0
 11
331.232
 21
40.8838
 31
0.0
  0
LINE
  8
0
 62
     0
 10
331.232
 20
40.8838
 30
0.0
 11
331.232
 21
54.8831
 31
0.0
  0
LINE
  8
0
 62
     0
 10
350.282
 20
54.8831
 30
0.0
 11
364.282
 21
54.8831
 31
0.0
  0
LINE
  8
0
 62
     0
 10
364.282
 20
54.8831
 30
0.0
 11
364.282
 21
40.8838
 31
0.0
  0
LINE
  8
0
 62
     0
 10
364.282
 20
40.8838
 30
0.0
 11
350.282
 21
40.8838
 31
0.0
  0
LINE
  8
0
 62
     0
 10
350.282
 20
40.8838
 30
0.0
 11
350.282
 21
54.8831
 31
0.0
  0
LINE
  8
0
 62
     0
 10
369.334
 20
54.8831
 30
0.0
 11
383.332
 21
54.8831
 31
0.0
  0
LINE
  8
0
 62
     0
 10
383.332
 20
54.8831
 30
0.0
 11
383.332
 21
40.8838
 31
0.0
  0
LINE
  8
0
 62
     0
 10
383.332
 20
40.8838
 30
0.0
 11
369.334
 21
40.8838
 31
0.0
  0
LINE
  8
0
 62
     0
 10
369.334
 20
40.8838
 30
0.0
 11
369.334
 21
54.8831
 31
0.0
  0
LINE
  8
0
 62
     0
 10
312.182
 20
64.4081
 30
0.0
 11
326.182
 21
64.4081
 31
0.0
  0
LINE
  8
0
 62
     0
 10
326.182
 20
64.4081
 30
0.0
 11
326.182
 21
50.4088
 31
0.0
  0
LINE
  8
0
 62
     0
 10
326.182
 20
50.4088
 30
0.0
 11
312.182
 21
50.4088
 31
0.0
  0
LINE
  8
0
 62
     0
 10
312.182
 20
50.4088
 30
0.0
 11
312.182
 21
64.4081
 31
0.0
  0
LINE
  8
0
 62
     0
 10
2.61965
 20
73.9331
 30
0.0
 11
16.6192
 21
73.9331
 31
0.0
  0
LINE
  8
0
 62
     0
 10
16.6192
 20
73.9331
 30
0.0
 11
16.6192
 21
59.9338
 31
0.0
  0
LINE
  8
0
 62
     0
 10
16.6192
 20
59.9338
 30
0.0
 11
2.61965
 21
59.9338
 31
0.0
  0
LINE
  8
0
 62
     0
 10
2.61965
 20
59.9338
 30
0.0
 11
2.61965
 21
73.9331
 31
0.0
  0
LINE
  8
0
 62
     0
 10
21.6697
 20
73.9331
 30
0.0
 11
35.669
 21
73.9331
 31
0.0
  0
LINE
  8
0
 62
     0
 10
35.669
 20
73.9331
 30
0.0
 11
35.669
 21
59.9338
 31
0.0
  0
LINE
  8
0
 62
     0
 10
35.669
 20
59.9338
 30
0.0
 11
21.6697
 21
59.9338
 31
0.0
  0
LINE
  8
0
 62
     0
 10
21.6697
 20
59.9338
 30
0.0
 11
21.6697
 21
73.9331
 31
0.0
  0
LINE
  8
0
 62
     0
 10
55.0072
 20
73.9331
 30
0.0
 11
69.0065
 21
73.9331
 31
0.0
  0
LINE
  8
0
 62
     0
 10
69.0065
 20
73.9331
 30
0.0
 11
69.0065
 21
59.9338
 31
0.0
  0
LINE
  8
0
 62
     0
 10
69.0065
 20
59.9338
 30
0.0
 11
55.0072
 21
59.9338
 31
0.0
  0
LINE
  8
0
 62
     0
 10
55.0072
 20
59.9338
 30
0.0
 11
55.0072
 21
73.9331
 31
0.0
  0
LINE
  8
0
 62
     0
 10
78.8197
 20
73.9331
 30
0.0
 11
92.819
 21
73.9331
 31
0.0
  0
LINE
  8
0
 62
     0
 10
92.819
 20
73.9331
 30
0.0
 11
92.819
 21
59.9338
 31
0.0
  0
LINE
  8
0
 62
     0
 10
92.819
 20
59.9338
 30
0.0
 11
78.8197
 21
59.9338
 31
0.0
  0
LINE
  8
0
 62
     0
 10
78.8197
 20
59.9338
 30
0.0
 11
78.8197
 21
73.9331
 31
0.0
  0
LINE
  8
0
 62
     0
 10
97.8683
 20
73.9331
 30
0.0
 11
111.869
 21
73.9331
 31
0.0
  0
LINE
  8
0
 62
     0
 10
111.869
 20
73.9331
 30
0.0
 11
111.869
 21
59.9338
 31
0.0
  0
LINE
  8
0
 62
     0
 10
111.869
 20
59.9338
 30
0.0
 11
97.8683
 21
59.9338
 31
0.0
  0
LINE
  8
0
 62
     0
 10
97.8683
 20
59.9338
 30
0.0
 11
97.8683
 21
73.9331
 31
0.0
  0
LINE
  8
0
 62
     0
 10
116.918
 20
73.9331
 30
0.0
 11
130.919
 21
73.9331
 31
0.0
  0
LINE
  8
0
 62
     0
 10
130.919
 20
73.9331
 30
0.0
 11
130.919
 21
59.9338
 31
0.0
  0
LINE
  8
0
 62
     0
 10
130.919
 20
59.9338
 30
0.0
 11
116.918
 21
59.9338
 31
0.0
  0
LINE
  8
0
 62
     0
 10
116.918
 20
59.9338
 30
0.0
 11
116.918
 21
73.9331
 31
0.0
  0
LINE
  8
0
 62
     0
 10
135.97
 20
73.9331
 30
0.0
 11
149.969
 21
73.9331
 31
0.0
  0
LINE
  8
0
 62
     0
 10
149.969
 20
73.9331
 30
0.0
 11
149.969
 21
59.9338
 31
0.0
  0
LINE
  8
0
 62
     0
 10
149.969
 20
59.9338
 30
0.0
 11
135.97
 21
59.9338
 31
0.0
  0
LINE
  8
0
 62
     0
 10
135.97
 20
59.9338
 30
0.0
 11
135.97
 21
73.9331
 31
0.0
  0
LINE
  8
0
 62
     0
 10
155.02
 20
73.9331
 30
0.0
 11
169.019
 21
73.9331
 31
0.0
  0
LINE
  8
0
 62
     0
 10
169.019
 20
73.9331
 30
0.0
 11
169.019
 21
59.9338
 31
0.0
  0
LINE
  8
0
 62
     0
 10
169.019
 20
59.9338
 30
0.0
 11
155.02
 21
59.9338
 31
0.0
  0
LINE
  8
0
 62
     0
 10
155.02
 20
59.9338
 30
0.0
 11
155.02
 21
73.9331
 31
0.0
  0
LINE
  8
0
 62
     0
 10
174.07
 20
73.9331
 30
0.0
 11
188.069
 21
73.9331
 31
0.0
  0
LINE
  8
0
 62
     0
 10
188.069
 20
73.9331
 30
0.0
 11
188.069
 21
59.9338
 31
0.0
  0
LINE
  8
0
 62
     0
 10
188.069
 20
59.9338
 30
0.0
 11
174.07
 21
59.9338
 31
0.0
  0
LINE
  8
0
 62
     0
 10
174.07
 20
59.9338
 30
0.0
 11
174.07
 21
73.9331
 31
0.0
  0
LINE
  8
0
 62
     0
 10
193.12
 20
73.9331
 30
0.0
 11
207.119
 21
73.9331
 31
0.0
  0
LINE
  8
0
 62
     0
 10
207.119
 20
73.9331
 30
0.0
 11
207.119
 21
59.9338
 31
0.0
  0
LINE
  8
0
 62
     0
 10
207.119
 20
59.9338
 30
0.0
 11
193.12
 21
59.9338
 31
0.0
  0
LINE
  8
0
 62
     0
 10
193.12
 20
59.9338
 30
0.0
 11
193.12
 21
73.9331
 31
0.0
  0
LINE
  8
0
 62
     0
 10
212.17
 20
73.9331
 30
0.0
 11
226.169
 21
73.9331
 31
0.0
  0
LINE
  8
0
 62
     0
 10
226.169
 20
73.9331
 30
0.0
 11
226.169
 21
59.9338
 31
0.0
  0
LINE
  8
0
 62
     0
 10
226.169
 20
59.9338
 30
0.0
 11
212.17
 21
59.9338
 31
0.0
  0
LINE
  8
0
 62
     0
 10
212.17
 20
59.9338
 30
0.0
 11
212.17
 21
73.9331
 31
0.0
  0
LINE
  8
0
 62
     0
 10
231.22
 20
73.9331
 30
0.0
 11
245.219
 21
73.9331
 31
0.0
  0
LINE
  8
0
 62
     0
 10
245.219
 20
73.9331
 30
0.0
 11
245.219
 21
59.9338
 31
0.0
  0
LINE
  8
0
 62
     0
 10
245.219
 20
59.9338
 30
0.0
 11
231.22
 21
59.9338
 31
0.0
  0
LINE
  8
0
 62
     0
 10
231.22
 20
59.9338
 30
0.0
 11
231.22
 21
73.9331
 31
0.0
  0
LINE
  8
0
 62
     0
 10
250.27
 20
73.9331
 30
0.0
 11
264.269
 21
73.9331
 31
0.0
  0
LINE
  8
0
 62
     0
 10
264.269
 20
73.9331
 30
0.0
 11
264.269
 21
59.9338
 31
0.0
  0
LINE
  8
0
 62
     0
 10
264.269
 20
59.9338
 30
0.0
 11
250.27
 21
59.9338
 31
0.0
  0
LINE
  8
0
 62
     0
 10
250.27
 20
59.9338
 30
0.0
 11
250.27
 21
73.9331
 31
0.0
  0
LINE
  8
0
 62
     0
 10
269.32
 20
73.9331
 30
0.0
 11
283.319
 21
73.9331
 31
0.0
  0
LINE
  8
0
 62
     0
 10
283.319
 20
73.9331
 30
0.0
 11
283.319
 21
59.9338
 31
0.0
  0
LINE
  8
0
 62
     0
 10
283.319
 20
59.9338
 30
0.0
 11
269.32
 21
59.9338
 31
0.0
  0
LINE
  8
0
 62
     0
 10
269.32
 20
59.9338
 30
0.0
 11
269.32
 21
73.9331
 31
0.0
  0
LINE
  8
0
 62
     0
 10
288.37
 20
73.9331
 30
0.0
 11
302.369
 21
73.9331
 31
0.0
  0
LINE
  8
0
 62
     0
 10
302.369
 20
73.9331
 30
0.0
 11
302.369
 21
59.9338
 31
0.0
  0
LINE
  8
0
 62
     0
 10
302.369
 20
59.9338
 30
0.0
 11
288.37
 21
59.9338
 31
0.0
  0
LINE
  8
0
 62
     0
 10
288.37
 20
59.9338
 30
0.0
 11
288.37
 21
73.9331
 31
0.0
  0
LINE
  8
0
 62
     0
 10
331.232
 20
73.9331
 30
0.0
 11
345.232
 21
73.9331
 31
0.0
  0
LINE
  8
0
 62
     0
 10
345.232
 20
73.9331
 30
0.0
 11
345.232
 21
59.9338
 31
0.0
  0
LINE
  8
0
 62
     0
 10
345.232
 20
59.9338
 30
0.0
 11
331.232
 21
59.9338
 31
0.0
  0
LINE
  8
0
 62
     0
 10
331.232
 20
59.9338
 30
0.0
 11
331.232
 21
73.9331
 31
0.0
  0
LINE
  8
0
 62
     0
 10
350.282
 20
73.9331
 30
0.0
 11
364.282
 21
73.9331
 31
0.0
  0
LINE
  8
0
 62
     0
 10
364.282
 20
73.9331
 30
0.0
 11
364.282
 21
59.9338
 31
0.0
  0
LINE
  8
0
 62
     0
 10
364.282
 20
59.9338
 30
0.0
 11
350.282
 21
59.9338
 31
0.0
  0
LINE
  8
0
 62
     0
 10
350.282
 20
59.9338
 30
0.0
 11
350.282
 21
73.9331
 31
0.0
  0
LINE
  8
0
 62
     0
 10
369.334
 20
73.9331
 30
0.0
 11
383.332
 21
73.9331
 31
0.0
  0
LINE
  8
0
 62
     0
 10
383.332
 20
73.9331
 30
0.0
 11
383.332
 21
59.9338
 31
0.0
  0
LINE
  8
0
 62
     0
 10
383.332
 20
59.9338
 30
0.0
 11
369.334
 21
59.9338
 31
0.0
  0
LINE
  8
0
 62
     0
 10
369.334
 20
59.9338
 30
0.0
 11
369.334
 21
73.9331
 31
0.0
  0
LINE
  8
0
 62
     0
 10
388.384
 20
73.9331
 30
0.0
 11
402.382
 21
73.9331
 31
0.0
  0
LINE
  8
0
 62
     0
 10
402.382
 20
73.9331
 30
0.0
 11
402.382
 21
59.9338
 31
0.0
  0
LINE
  8
0
 62
     0
 10
402.382
 20
59.9338
 30
0.0
 11
388.384
 21
59.9338
 31
0.0
  0
LINE
  8
0
 62
     0
 10
388.384
 20
59.9338
 30
0.0
 11
388.384
 21
73.9331
 31
0.0
  0
LINE
  8
0
 62
     0
 10
2.61965
 20
92.9831
 30
0.0
 11
16.6192
 21
92.9831
 31
0.0
  0
LINE
  8
0
 62
     0
 10
16.6192
 20
92.9831
 30
0.0
 11
16.6192
 21
78.9838
 31
0.0
  0
LINE
  8
0
 62
     0
 10
16.6192
 20
78.9838
 30
0.0
 11
2.61965
 21
78.9838
 31
0.0
  0
LINE
  8
0
 62
     0
 10
2.61965
 20
78.9838
 30
0.0
 11
2.61965
 21
92.9831
 31
0.0
  0
LINE
  8
0
 62
     0
 10
21.6697
 20
92.9831
 30
0.0
 11
35.669
 21
92.9831
 31
0.0
  0
LINE
  8
0
 62
     0
 10
35.669
 20
92.9831
 30
0.0
 11
35.669
 21
78.9838
 31
0.0
  0
LINE
  8
0
 62
     0
 10
35.669
 20
78.9838
 30
0.0
 11
21.6697
 21
78.9838
 31
0.0
  0
LINE
  8
0
 62
     0
 10
21.6697
 20
78.9838
 30
0.0
 11
21.6697
 21
92.9831
 31
0.0
  0
LINE
  8
0
 62
     0
 10
50.2447
 20
92.9831
 30
0.0
 11
64.244
 21
92.9831
 31
0.0
  0
LINE
  8
0
 62
     0
 10
64.244
 20
92.9831
 30
0.0
 11
64.244
 21
78.9838
 31
0.0
  0
LINE
  8
0
 62
     0
 10
64.244
 20
78.9838
 30
0.0
 11
50.2447
 21
78.9838
 31
0.0
  0
LINE
  8
0
 62
     0
 10
50.2447
 20
78.9838
 30
0.0
 11
50.2447
 21
92.9831
 31
0.0
  0
LINE
  8
0
 62
     0
 10
69.2947
 20
92.9831
 30
0.0
 11
83.294
 21
92.9831
 31
0.0
  0
LINE
  8
0
 62
     0
 10
83.294
 20
92.9831
 30
0.0
 11
83.294
 21
78.9838
 31
0.0
  0
LINE
  8
0
 62
     0
 10
83.294
 20
78.9838
 30
0.0
 11
69.2947
 21
78.9838
 31
0.0
  0
LINE
  8
0
 62
     0
 10
69.2947
 20
78.9838
 30
0.0
 11
69.2947
 21
92.9831
 31
0.0
  0
LINE
  8
0
 62
     0
 10
88.3447
 20
92.9831
 30
0.0
 11
102.344
 21
92.9831
 31
0.0
  0
LINE
  8
0
 62
     0
 10
102.344
 20
92.9831
 30
0.0
 11
102.344
 21
78.9838
 31
0.0
  0
LINE
  8
0
 62
     0
 10
102.344
 20
78.9838
 30
0.0
 11
88.3447
 21
78.9838
 31
0.0
  0
LINE
  8
0
 62
     0
 10
88.3447
 20
78.9838
 30
0.0
 11
88.3447
 21
92.9831
 31
0.0
  0
LINE
  8
0
 62
     0
 10
107.395
 20
92.9831
 30
0.0
 11
121.394
 21
92.9831
 31
0.0
  0
LINE
  8
0
 62
     0
 10
121.394
 20
92.9831
 30
0.0
 11
121.394
 21
78.9838
 31
0.0
  0
LINE
  8
0
 62
     0
 10
121.394
 20
78.9838
 30
0.0
 11
107.395
 21
78.9838
 31
0.0
  0
LINE
  8
0
 62
     0
 10
107.395
 20
78.9838
 30
0.0
 11
107.395
 21
92.9831
 31
0.0
  0
LINE
  8
0
 62
     0
 10
126.445
 20
92.9831
 30
0.0
 11
140.444
 21
92.9831
 31
0.0
  0
LINE
  8
0
 62
     0
 10
140.444
 20
92.9831
 30
0.0
 11
140.444
 21
78.9838
 31
0.0
  0
LINE
  8
0
 62
     0
 10
140.444
 20
78.9838
 30
0.0
 11
126.445
 21
78.9838
 31
0.0
  0
LINE
  8
0
 62
     0
 10
126.445
 20
78.9838
 30
0.0
 11
126.445
 21
92.9831
 31
0.0
  0
LINE
  8
0
 62
     0
 10
145.495
 20
92.9831
 30
0.0
 11
159.494
 21
92.9831
 31
0.0
  0
LINE
  8
0
 62
     0
 10
159.494
 20
92.9831
 30
0.0
 11
159.494
 21
78.9838
 31
0.0
  0
LINE
  8
0
 62
     0
 10
159.494
 20
78.9838
 30
0.0
 11
145.495
 21
78.9838
 31
0.0
  0
LINE
  8
0
 62
     0
 10
145.495
 20
78.9838
 30
0.0
 11
145.495
 21
92.9831
 31
0.0
  0
LINE
  8
0
 62
     0
 10
164.545
 20
92.9831
 30
0.0
 11
178.544
 21
92.9831
 31
0.0
  0
LINE
  8
0
 62
     0
 10
178.544
 20
92.9831
 30
0.0
 11
178.544
 21
78.9838
 31
0.0
  0
LINE
  8
0
 62
     0
 10
178.544
 20
78.9838
 30
0.0
 11
164.545
 21
78.9838
 31
0.0
  0
LINE
  8
0
 62
     0
 10
164.545
 20
78.9838
 30
0.0
 11
164.545
 21
92.9831
 31
0.0
  0
LINE
  8
0
 62
     0
 10
183.595
 20
92.9831
 30
0.0
 11
197.594
 21
92.9831
 31
0.0
  0
LINE
  8
0
 62
     0
 10
197.594
 20
92.9831
 30
0.0
 11
197.594
 21
78.9838
 31
0.0
  0
LINE
  8
0
 62
     0
 10
197.594
 20
78.9838
 30
0.0
 11
183.595
 21
78.9838
 31
0.0
  0
LINE
  8
0
 62
     0
 10
183.595
 20
78.9838
 30
0.0
 11
183.595
 21
92.9831
 31
0.0
  0
LINE
  8
0
 62
     0
 10
202.645
 20
92.9831
 30
0.0
 11
216.644
 21
92.9831
 31
0.0
  0
LINE
  8
0
 62
     0
 10
216.644
 20
92.9831
 30
0.0
 11
216.644
 21
78.9838
 31
0.0
  0
LINE
  8
0
 62
     0
 10
216.644
 20
78.9838
 30
0.0
 11
202.645
 21
78.9838
 31
0.0
  0
LINE
  8
0
 62
     0
 10
202.645
 20
78.9838
 30
0.0
 11
202.645
 21
92.9831
 31
0.0
  0
LINE
  8
0
 62
     0
 10
221.695
 20
92.9831
 30
0.0
 11
235.694
 21
92.9831
 31
0.0
  0
LINE
  8
0
 62
     0
 10
235.694
 20
92.9831
 30
0.0
 11
235.694
 21
78.9838
 31
0.0
  0
LINE
  8
0
 62
     0
 10
235.694
 20
78.9838
 30
0.0
 11
221.695
 21
78.9838
 31
0.0
  0
LINE
  8
0
 62
     0
 10
221.695
 20
78.9838
 30
0.0
 11
221.695
 21
92.9831
 31
0.0
  0
LINE
  8
0
 62
     0
 10
240.745
 20
92.9831
 30
0.0
 11
254.744
 21
92.9831
 31
0.0
  0
LINE
  8
0
 62
     0
 10
254.744
 20
92.9831
 30
0.0
 11
254.744
 21
78.9838
 31
0.0
  0
LINE
  8
0
 62
     0
 10
254.744
 20
78.9838
 30
0.0
 11
240.745
 21
78.9838
 31
0.0
  0
LINE
  8
0
 62
     0
 10
240.745
 20
78.9838
 30
0.0
 11
240.745
 21
92.9831
 31
0.0
  0
LINE
  8
0
 62
     0
 10
259.795
 20
92.9831
 30
0.0
 11
273.794
 21
92.9831
 31
0.0
  0
LINE
  8
0
 62
     0
 10
273.794
 20
92.9831
 30
0.0
 11
273.794
 21
78.9838
 31
0.0
  0
LINE
  8
0
 62
     0
 10
273.794
 20
78.9838
 30
0.0
 11
259.795
 21
78.9838
 31
0.0
  0
LINE
  8
0
 62
     0
 10
259.795
 20
78.9838
 30
0.0
 11
259.795
 21
92.9831
 31
0.0
  0
LINE
  8
0
 62
     0
 10
278.845
 20
92.9831
 30
0.0
 11
292.844
 21
92.9831
 31
0.0
  0
LINE
  8
0
 62
     0
 10
292.844
 20
92.9831
 30
0.0
 11
292.844
 21
78.9838
 31
0.0
  0
LINE
  8
0
 62
     0
 10
292.844
 20
78.9838
 30
0.0
 11
278.845
 21
78.9838
 31
0.0
  0
LINE
  8
0
 62
     0
 10
278.845
 20
78.9838
 30
0.0
 11
278.845
 21
92.9831
 31
0.0
  0
LINE
  8
0
 62
     0
 10
302.657
 20
92.9831
 30
0.0
 11
316.657
 21
92.9831
 31
0.0
  0
LINE
  8
0
 62
     0
 10
316.657
 20
92.9831
 30
0.0
 11
316.657
 21
78.9838
 31
0.0
  0
LINE
  8
0
 62
     0
 10
316.657
 20
78.9838
 30
0.0
 11
302.657
 21
78.9838
 31
0.0
  0
LINE
  8
0
 62
     0
 10
302.657
 20
78.9838
 30
0.0
 11
302.657
 21
92.9831
 31
0.0
  0
LINE
  8
0
 62
     0
 10
340.757
 20
92.9831
 30
0.0
 11
354.757
 21
92.9831
 31
0.0
  0
LINE
  8
0
 62
     0
 10
354.757
 20
92.9831
 30
0.0
 11
354.757
 21
78.9838
 31
0.0
  0
LINE
  8
0
 62
     0
 10
354.757
 20
78.9838
 30
0.0
 11
340.757
 21
78.9838
 31
0.0
  0
LINE
  8
0
 62
     0
 10
340.757
 20
78.9838
 30
0.0
 11
340.757
 21
92.9831
 31
0.0
  0
LINE
  8
0
 62
     0
 10
378.859
 20
92.9831
 30
0.0
 11
392.857
 21
92.9831
 31
0.0
  0
LINE
  8
0
 62
     0
 10
392.857
 20
92.9831
 30
0.0
 11
392.857
 21
78.9838
 31
0.0
  0
LINE
  8
0
 62
     0
 10
392.857
 20
78.9838
 30
0.0
 11
378.859
 21
78.9838
 31
0.0
  0
LINE
  8
0
 62
     0
 10
378.859
 20
78.9838
 30
0.0
 11
378.859
 21
92.9831
 31
0.0
  0
ENDSEC
  0
EOF
